<?xml version="1.0" encoding="UTF-8"?>
<!-- Generated by Pixelmator Pro 2.4.5 -->
<svg width="180" height="180" viewBox="0 0 180 180" xmlns="http://www.w3.org/2000/svg" xmlns:xlink="http://www.w3.org/1999/xlink">
    <g id="Metdata">
        <path id="Ellipse-copy" fill="#000000" fill-rule="evenodd" stroke="#000000" stroke-width="2" stroke-linecap="round" stroke-linejoin="round" d="M 40 25 C 40 16.715729 33.284271 10 25 10 C 16.715729 10 10 16.715729 10 25 C 10 33.284271 16.715729 40 25 40 C 33.284271 40 40 33.284271 40 25 Z"/>
        <path id="Path" fill="none" stroke="#000000" stroke-width="8" stroke-linecap="round" stroke-linejoin="round" d="M 60 25 C 133.834076 24.633774 170 25 170 25"/>
        <path id="Path-copy" fill="none" stroke="#000000" stroke-width="8" stroke-linecap="round" stroke-linejoin="round" d="M 60 69 C 133.834076 68.633774 170 69 170 69"/>
        <path id="Path-copy-2" fill="none" stroke="#000000" stroke-width="8" stroke-linecap="round" stroke-linejoin="round" d="M 60 112 C 133.834076 111.633774 170 112 170 112"/>
        <path id="Path-copy-4" fill="none" stroke="#000000" stroke-width="8" stroke-linecap="round" stroke-linejoin="round" d="M 60 155 C 133.834076 154.633774 170 155 170 155"/>
    </g>
</svg>
